<mxfile host="app.diagrams.net" modified="2023-11-15T06:19:45.724Z" agent="Mozilla/5.0 (Macintosh; Intel Mac OS X 10_15_7) AppleWebKit/537.36 (KHTML, like Gecko) Chrome/106.0.0.0 Safari/537.36" version="22.1.1" etag="csAhbBxwGGoiFwRwWIv7" type="github">
  <diagram name="Page-1" id="qO98ZG9f8IcGyHb5cwaQ">
    <mxGraphModel>
      <root>
        <mxCell id="0" />
        <mxCell id="1" parent="0" />
      </root>
    </mxGraphModel>
  </diagram>
</mxfile>
